{
  "accessors": [
    {
      "bufferView": 2,
      "componentType": 5126,
      "count": 16589,
      "max": [
        0.88516700267791748,
        0.094227001070976257,
        0.40784600377082825
      ],
      "min": [
        -1,
        -0.11620700359344482,
        -0.40784600377082825
      ],
      "type": "VEC3"
    },
    {
      "bufferView": 2,
      "byteOffset": 199068,
      "componentType": 5126,
      "count": 16589,
      "max": [
        1,
        1,
        1
      ],
      "min": [
        -1,
        -1,
        -1
      ],
      "type": "VEC3"
    },
    {
      "bufferView": 3,
      "componentType": 5126,
      "count": 16589,
      "max": [
        1,
        1,
        1,
        1
      ],
      "min": [
        -1,
        -1,
        -1,
        -1
      ],
      "type": "VEC4"
    },
    {
      "bufferView": 1,
      "componentType": 5126,
      "count": 16589,
      "max": [
        0.99392497539520264,
        0.99723798036575317
      ],
      "min": [
        0.0049581602215766907,
        0.0073178298771381378
      ],
      "type": "VEC2"
    },
    {
      "bufferView": 0,
      "componentType": 5125,
      "count": 78279,
      "max": [
        16588
      ],
      "min": [
        0
      ],
      "type": "SCALAR"
    },
    {
      "bufferView": 2,
      "byteOffset": 398136,
      "componentType": 5126,
      "count": 56873,
      "max": [
        1,
        0.26726898550987244,
        0.35039800405502319
      ],
      "min": [
        -0.81091600656509399,
        -0.26726898550987244,
        -0.35039800405502319
      ],
      "type": "VEC3"
    },
    {
      "bufferView": 2,
      "byteOffset": 1080612,
      "componentType": 5126,
      "count": 56873,
      "max": [
        1,
        1,
        1
      ],
      "min": [
        -1,
        -1,
        -1
      ],
      "type": "VEC3"
    },
    {
      "bufferView": 3,
      "byteOffset": 265424,
      "componentType": 5126,
      "count": 56873,
      "max": [
        1,
        1,
        1,
        1
      ],
      "min": [
        -1,
        -1,
        -1,
        -1
      ],
      "type": "VEC4"
    },
    {
      "bufferView": 1,
      "byteOffset": 132712,
      "componentType": 5126,
      "count": 56873,
      "max": [
        19.649700164794922,
        2.9478800296783447
      ],
      "min": [
        0,
        -2.7755598776686065e-17
      ],
      "type": "VEC2"
    },
    {
      "bufferView": 0,
      "byteOffset": 313116,
      "componentType": 5125,
      "count": 157116,
      "max": [
        56872
      ],
      "min": [
        0
      ],
      "type": "SCALAR"
    }
  ],
  "asset": {
    "extras": {
      "author": "cmoreau (https://sketchfab.com/cmoreau)",
      "license": "CC-BY-4.0 (http://creativecommons.org/licenses/by/4.0/)",
      "source": "https://sketchfab.com/3d-models/north-american-x-15-plane-bf491206ba844282949734b48b938c53",
      "title": "North American X-15 Plane"
    },
    "generator": "Sketchfab-10.39.2",
    "version": "2.0"
  },
  "bufferViews": [
    {
      "buffer": 0,
      "byteLength": 941580,
      "byteOffset": 0,
      "name": "floatBufferViews",
      "target": 34963
    },
    {
      "buffer": 0,
      "byteLength": 587696,
      "byteOffset": 941580,
      "byteStride": 8,
      "name": "floatBufferViews",
      "target": 34962
    },
    {
      "buffer": 0,
      "byteLength": 1763088,
      "byteOffset": 1529276,
      "byteStride": 12,
      "name": "floatBufferViews",
      "target": 34962
    },
    {
      "buffer": 0,
      "byteLength": 1175392,
      "byteOffset": 3292364,
      "byteStride": 16,
      "name": "floatBufferViews",
      "target": 34962
    }
  ],
  "buffers": [
    {
      "byteLength": 4467756,
      "uri": "scene.bin"
    }
  ],
  "images": [
    {
      "uri": "textures/part_2_baseColor.jpeg"
    },
    {
      "uri": "textures/part_2_metallicRoughness.png"
    },
    {
      "uri": "textures/part_2_normal.png"
    },
    {
      "uri": "textures/part_1_baseColor.jpeg"
    },
    {
      "uri": "textures/part_1_metallicRoughness.png"
    },
    {
      "uri": "textures/part_1_normal.png"
    }
  ],
  "materials": [
    {
      "doubleSided": true,
      "name": "part_2",
      "normalTexture": {
        "index": 2,
        "scale": 1,
        "texCoord": 0
      },
      "occlusionTexture": {
        "index": 1,
        "strength": 1,
        "texCoord": 0
      },
      "pbrMetallicRoughness": {
        "baseColorFactor": [
          1,
          1,
          1,
          1
        ],
        "baseColorTexture": {
          "index": 0,
          "texCoord": 0
        },
        "metallicFactor": 1,
        "metallicRoughnessTexture": {
          "index": 1,
          "texCoord": 0
        },
        "roughnessFactor": 1
      }
    },
    {
      "doubleSided": true,
      "name": "part_1",
      "normalTexture": {
        "index": 5,
        "scale": 1,
        "texCoord": 0
      },
      "occlusionTexture": {
        "index": 4,
        "strength": 1,
        "texCoord": 0
      },
      "pbrMetallicRoughness": {
        "baseColorFactor": [
          1,
          1,
          1,
          1
        ],
        "baseColorTexture": {
          "index": 3,
          "texCoord": 0
        },
        "metallicFactor": 1,
        "metallicRoughnessTexture": {
          "index": 4,
          "texCoord": 0
        },
        "roughnessFactor": 1
      }
    }
  ],
  "meshes": [
    {
      "name": "defaultMaterial",
      "primitives": [
        {
          "attributes": {
            "NORMAL": 1,
            "POSITION": 0,
            "TANGENT": 2,
            "TEXCOORD_0": 3
          },
          "indices": 4,
          "material": 1,
          "mode": 4
        }
      ]
    },
    {
      "name": "defaultMaterial",
      "primitives": [
        {
          "attributes": {
            "NORMAL": 6,
            "POSITION": 5,
            "TANGENT": 7,
            "TEXCOORD_0": 8
          },
          "indices": 9,
          "material": 0,
          "mode": 4
        }
      ]
    }
  ],
  "nodes": [
    {
      "children": [
        1
      ],
      "name": "RootNode (gltf orientation matrix)",
      "rotation": [
        -0.70710678118654746,
        -0,
        -0,
        0.70710678118654757
      ]
    },
    {
      "children": [
        2
      ],
      "matrix": [
        8.8970422744750977,
        0,
        0,
        0,
        0,
        8.8970422744750977,
        0,
        0,
        0,
        0,
        8.8970422744750977,
        0,
        0,
        0,
        0,
        1
      ],
      "name": "RootNode (model correction matrix)"
    },
    {
      "children": [
        3,
        5
      ],
      "matrix": [
        1,
        0,
        0,
        0,
        0,
        -4.3711390063094768e-08,
        0.999999999999999,
        0,
        0,
        -0.999999999999999,
        -4.3711390063094768e-08,
        0,
        0,
        0,
        0,
        1
      ],
      "name": "Collada visual scene group"
    },
    {
      "children": [
        4
      ],
      "name": "X-15_part_1"
    },
    {
      "mesh": 0,
      "name": "defaultMaterial"
    },
    {
      "children": [
        6
      ],
      "name": "X-15_part_2"
    },
    {
      "mesh": 1,
      "name": "defaultMaterial"
    }
  ],
  "samplers": [
    {
      "magFilter": 9729,
      "minFilter": 9987,
      "wrapS": 10497,
      "wrapT": 10497
    }
  ],
  "scene": 0,
  "scenes": [
    {
      "name": "OSG_Scene",
      "nodes": [
        0
      ]
    }
  ],
  "textures": [
    {
      "sampler": 0,
      "source": 0
    },
    {
      "sampler": 0,
      "source": 1
    },
    {
      "sampler": 0,
      "source": 2
    },
    {
      "sampler": 0,
      "source": 3
    },
    {
      "sampler": 0,
      "source": 4
    },
    {
      "sampler": 0,
      "source": 5
    }
  ]
}

